<?xml version="1.0" encoding="UTF-8"?><svg id="GSL_Standalone" xmlns="http://www.w3.org/2000/svg" xmlns:xlink="http://www.w3.org/1999/xlink" viewBox="0 0 500 186.25"><defs><style>.cls-1{fill:#fff;opacity:.1;}.cls-1,.cls-2,.cls-3,.cls-4,.cls-5,.cls-6,.cls-7{stroke-width:0px;}.cls-1,.cls-7{isolation:isolate;}.cls-2{fill:url(#linear-gradient);}.cls-3{fill:url(#linear-gradient-4);fill-rule:evenodd;}.cls-4{fill:url(#linear-gradient-2);}.cls-5{fill:url(#linear-gradient-3);}.cls-6{fill:url(#linear-gradient-5);}.cls-7{opacity:.05;}</style><linearGradient id="linear-gradient" x1="47.1" y1="95.63" x2="117.07" y2="95.63" gradientTransform="translate(0 188.34) scale(1 -1)" gradientUnits="userSpaceOnUse"><stop offset="0" stop-color="#039be5"/><stop offset="1" stop-color="#263f78"/></linearGradient><linearGradient id="linear-gradient-2" x1="47.1" y1="95.63" x2="117.07" y2="95.63" xlink:href="#linear-gradient"/><linearGradient id="linear-gradient-3" x1="50.83" y1="115.34" x2="135.14" y2="75.92" gradientTransform="translate(0 188.34) scale(1 -1)" gradientUnits="userSpaceOnUse"><stop offset="0" stop-color="#fff" stop-opacity=".2"/><stop offset="1" stop-color="#fff" stop-opacity="0"/></linearGradient><linearGradient id="linear-gradient-4" x1="1.34" y1="95.22" x2="141.28" y2="95.22" gradientTransform="translate(0 188.34) scale(1 -1)" gradientUnits="userSpaceOnUse"><stop offset="0" stop-color="#9ee9fa"/><stop offset="1" stop-color="#039be5"/></linearGradient><linearGradient id="linear-gradient-5" x1="188.52" y1="96.05" x2="426.36" y2="96.05" xlink:href="#linear-gradient-4"/></defs><path class="cls-2" d="M92.99,46.28c-25.68,0-46.56,20.83-46.56,46.43s20.89,46.43,46.56,46.43,46.56-20.83,46.56-46.43-20.89-46.43-46.56-46.43Z"/><path class="cls-4" d="M136.12,75.3H49.85c-2.19,5.38-3.43,11.25-3.43,17.41s1.23,12.03,3.43,17.41h86.27c2.19-5.38,3.43-11.25,3.43-17.41s-1.23-12.03-3.43-17.41Z"/><path class="cls-1" d="M92.99,46.28c-19.5,0-36.21,12.03-43.14,29.02h86.27c-6.93-16.99-23.64-29.02-43.14-29.02Z"/><path class="cls-7" d="M110.95,110.12h-61.11c6.93,16.99,23.64,29.02,43.14,29.02s36.21-12.03,43.14-29.02h-25.16Z"/><path class="cls-7" d="M136.13,75.3c-6.93-16.99-23.64-29.02-43.14-29.02,8.14,0,15.1,12.01,17.98,29.02.91,5.38,1.42,11.25,1.42,17.41s-.51,12.03-1.42,17.41c-2.88,17.01-9.84,29.02-17.98,29.02,19.5,0,36.21-12.03,43.14-29.02,2.19-5.38,3.43-11.25,3.43-17.41s-1.23-12.03-3.43-17.41Z"/><path class="cls-1" d="M75.01,110.12c-.91-5.38-1.42-11.25-1.42-17.41s.51-12.03,1.42-17.41c2.88-17.01,9.84-29.02,17.98-29.02-19.5,0-36.21,12.03-43.14,29.02-2.19,5.38-3.43,11.25-3.43,17.41s1.23,12.03,3.43,17.41c6.93,16.99,23.64,29.02,43.14,29.02-8.14,0-15.1-12.01-17.98-29.02Z"/><path class="cls-5" d="M92.99,46.28c-25.68,0-46.56,20.83-46.56,46.43s20.89,46.43,46.56,46.43,46.56-20.83,46.56-46.43-20.89-46.43-46.56-46.43Z"/><path class="cls-3" d="M164.37,153.09c14.13-16.79,21.88-38.02,21.88-59.97h-10.5s-41.97,0-41.97,0c-23.04,0-41.71,18.67-41.71,41.71h31.24c-6.31,4.57-13.62,7.67-21.4,9.02-11.95,2.07-24.25-.15-34.73-6.26-10.48-6.11-18.46-15.73-22.54-27.15-4.08-11.42-4-23.92.24-35.29,4.23-11.37,12.35-20.87,22.91-26.85,10.56-5.97,22.89-8.02,34.81-5.79,7.59,1.42,14.7,4.52,20.85,9,5.85,4.27,14.05,5.27,19.65.68l11.92-9.76c5.6-4.59,6.48-12.94,1.15-17.84-12.78-11.76-28.68-19.78-45.92-23-21.57-4.04-43.87-.33-62.97,10.47C28.19,22.86,13.52,40.06,5.86,60.62c-7.66,20.56-7.81,43.17-.43,63.83,7.38,20.66,21.82,38.06,40.77,49.11,18.95,11.06,41.2,15.07,62.82,11.32,21.62-3.75,41.22-15,55.35-31.79Z"/><path class="cls-6" d="M263.95,182.18c-27.56,0-55.37-8.19-70.76-20.11l13.66-30.29c14.65,10.68,36.5,18.13,57.35,18.13,23.84,0,33.52-7.95,33.52-18.62,0-32.53-101.05-10.18-101.05-74.73,0-29.55,23.84-54.13,73.24-54.13,21.85,0,44.2,5.21,60.33,15.39l-12.41,30.54c-16.14-9.19-32.77-13.66-48.17-13.66-23.84,0-33.02,8.94-33.02,19.86,0,32.03,101.05,9.93,101.05,73.74,0,29.05-24.08,53.88-73.74,53.88ZM372.63,179.2V5.4h40.22v141.03h87.15v32.77h-127.37Z"/></svg>